# xmcd
#
# Track frame offsets:
#	150
#	20985
#	63134
#	105656
#	141691
#	171919
#
# Disc length: 2683 seconds
#
# Revision: 1
# Processed by: cddbd v1.5.1PL0 Copyright (c) Steve Scherf et al.
# Submitted via: audiograbber 1.82.01
#
DISCID=570a7906
DTITLE=Johnny Winter  - 1980-07-27 - Central Park,Ny - Disc 2
DYEAR=1900
DGENRE=
TTITLE0=Johnny Winter  - The Crawl
TTITLE1=Johnny Winter  - Highway 61 Revisited
TTITLE2=Johnny Winter  - Rollin' and Tumblin'
TTITLE3=Johnny Winter  - Come On In My Kitchen
TTITLE4=Johnny Winter  - Johnny B. Goode
TTITLE5=Johnny Winter  - Jumpin' Jack Flash
EXTD=
EXTT0=
EXTT1=
EXTT2=
EXTT3=
EXTT4=
EXTT5=
PLAYORDER=
